<mxfile host="app.diagrams.net" agent="Mozilla/5.0 (X11; Linux x86_64) AppleWebKit/537.36 (KHTML, like Gecko) Chrome/130.0.0.0 Safari/537.36" version="26.2.9">
  <diagram name="Page-1" id="Kxg9N5Jgj0b2WwsqSaFU">
    <mxGraphModel dx="1358" dy="798" grid="1" gridSize="10" guides="1" tooltips="1" connect="1" arrows="1" fold="1" page="1" pageScale="1" pageWidth="850" pageHeight="1100" math="0" shadow="0">
      <root>
        <mxCell id="0" />
        <mxCell id="1" parent="0" />
        <mxCell id="d0gYTXrHnxRHRp5APFL4-2" value="" style="rounded=0;whiteSpace=wrap;html=1;fillColor=#D5E8D4;" vertex="1" parent="1">
          <mxGeometry x="180" y="40" width="250" height="40" as="geometry" />
        </mxCell>
        <mxCell id="d0gYTXrHnxRHRp5APFL4-3" value="" style="rounded=0;whiteSpace=wrap;html=1;fillColor=#67AB9F;" vertex="1" parent="1">
          <mxGeometry x="200" y="89" width="190" height="40" as="geometry" />
        </mxCell>
        <mxCell id="d0gYTXrHnxRHRp5APFL4-4" value="" style="rounded=0;whiteSpace=wrap;html=1;fillColor=#97D077;" vertex="1" parent="1">
          <mxGeometry x="427" y="138" width="120" height="39" as="geometry" />
        </mxCell>
        <mxCell id="d0gYTXrHnxRHRp5APFL4-5" value="" style="rounded=0;whiteSpace=wrap;html=1;fillColor=#FF0000;strokeColor=#b85450;" vertex="1" parent="1">
          <mxGeometry x="43" y="138" width="120" height="40" as="geometry" />
        </mxCell>
        <mxCell id="d0gYTXrHnxRHRp5APFL4-7" value="" style="rounded=0;whiteSpace=wrap;html=1;fillColor=#FFCCCC;" vertex="1" parent="1">
          <mxGeometry x="193" y="138" width="120" height="42" as="geometry" />
        </mxCell>
        <mxCell id="d0gYTXrHnxRHRp5APFL4-1" value="&lt;font style=&quot;font-size: 40px;&quot;&gt;It&amp;nbsp; &amp;nbsp; is&amp;nbsp; &amp;nbsp; unbeliavable&amp;nbsp; &amp;nbsp; that&amp;nbsp; &amp;nbsp; the&amp;nbsp; &amp;nbsp; BeeGees&amp;nbsp; &amp;nbsp; have&lt;/font&gt;&lt;div&gt;&lt;font style=&quot;font-size: 40px;&quot;&gt;never&amp;nbsp; &amp;nbsp; &amp;nbsp;come&amp;nbsp; &amp;nbsp; to&amp;nbsp; &amp;nbsp; &amp;nbsp;Brazil&amp;nbsp; .&lt;/font&gt;&lt;/div&gt;" style="text;html=1;align=center;verticalAlign=middle;whiteSpace=wrap;rounded=0;" vertex="1" parent="1">
          <mxGeometry x="31" y="93" width="560" height="30" as="geometry" />
        </mxCell>
      </root>
    </mxGraphModel>
  </diagram>
</mxfile>
